external_pedal_forces_trial_4.mot
version=1
nRows=94
nColumns=7
inDegrees=yes
endheader
time	PedalClip_calcn_r_Fx	PedalClip_calcn_r_Fy	PedalClip_calcn_r_Fz	PedalClip_calcn_r_Px	PedalClip_calcn_r_Py	PedalClip_calcn_r_Pz
1.53910456	-22.3172743120524	34.624876576903	440.553663525714	0.171079202303994	-0.1316099618264	0.089
1.5392379	-22.4550269202144	34.7496839570942	441.33158931925	0.170940529820508	-0.131317532597569	0.089
1.53949394	-22.5928862414242	34.8748676301115	442.109952475485	0.17080297064257	-0.131025626571083	0.089
1.53984124	-22.7308361288816	35.0004051360884	442.888639959547	0.170666532957244	-0.130734257645381	0.089
1.53989289	-22.8688595953402	35.1262745841569	443.667538060872	0.170531225412269	-0.13044343962865	0.089
1.5400212	-23.006942235494	35.2524602251212	444.446559715354	0.170397053150528	-0.130153191469686	0.089
1.54037693	-23.1450720665458	35.3789522247611	445.225642804872	0.170264018475373	-0.129863541773274	0.089
1.54050777	-23.2832394104088	35.505745393952	446.004743131704	0.170132122941306	-0.129574504961221	0.089
1.54076074	-23.4214364086629	35.6328378065729	446.783831686069	0.170001365855073	-0.129286090514169	0.089
1.54110946	-23.5596589054998	35.7602312783143	447.562902896515	0.169871741305238	-0.128998300494823	0.089
1.54115827	-23.6979086687629	35.8879337909666	448.341985884179	0.169743238952437	-0.128711127582064	0.089
1.54128761	-23.8361940632308	36.0159600313583	449.12114873358	0.169615842553535	-0.128424560004362	0.089
1.54162768	-23.9745231222955	36.1443231930945	449.900455659784	0.169489536400217	-0.128138594054731	0.089
1.54175554	-24.1129009906101	36.2730329573475	450.679949223938	0.169364309383492	-0.12785321812773	0.089
1.54200194	-24.2513297289403	36.4020942635081	451.459647995954	0.169240153242667	-0.127568419810552	0.089
1.54235155	-24.389809460842	36.5315041817525	452.239541903789	0.169117061101714	-0.127284179399733	0.089
1.54239722	-24.5283342568335	36.6612538821459	453.019588808106	0.168995029838287	-0.127000488980646	0.089
1.54252771	-24.6668970538166	36.7913321322558	453.799739307959	0.168874056371666	-0.126717346361991	0.089
1.54284845	-24.8054941482821	36.9217244152678	454.57994909032	0.168754137307163	-0.126434752590725	0.089
1.54297489	-24.944116578736	37.0524153026157	455.360156041247	0.168635272896265	-0.126152720375001	0.089
1.54321205	-25.0827545617556	37.1833966253502	456.140315368607	0.168517460986292	-0.125871279054663	0.089
1.54356113	-25.2214046433814	37.3146694997113	456.920427769355	0.168400692440361	-0.125590456763839	0.089
1.54360407	-25.3600716855865	37.4462448225759	457.700543952631	0.168284952876959	-0.125310268846271	0.089
1.54373535	-25.4987680241547	37.5781394294356	458.480752883185	0.168170222493129	-0.125030719157679	0.089
1.54403639	-25.637509083862	37.7103712588955	459.261155177206	0.168056479297271	-0.124751804680453	0.089
1.54415181	-25.7763161193314	37.8429623967782	460.041873284809	0.167943701846817	-0.124473491192929	0.089
1.54437803	-25.9152187260569	37.9759424689516	460.823070918807	0.167831864924573	-0.124195720644474	0.089
1.54474233	-26.0542478232203	38.1093427830613	461.604923124846	0.167720941225165	-0.123918442940315	0.089
1.54477876	-26.1934342866237	38.2431939055003	462.387602855123	0.16761090449987	-0.123641605512735	0.089
1.54491262	-26.3328075796923	38.3775231147794	463.171270289179	0.167501728933274	-0.123365150156091	0.089
1.54517048	-26.4723908808113	38.5123474357746	463.956038066605	0.167393392959535	-0.12308900721346	0.089
1.54525197	-26.6121993032561	38.6476704843114	464.74195577093	0.167285884790216	-0.122813111480038	0.089
1.545478	-26.7522452034574	38.7834903212678	465.529048293812	0.167179195778679	-0.122537409131811	0.089
1.54579108	-26.8925376976166	38.9198105270938	466.317352839888	0.167073314433363	-0.122261887833851	0.089
1.54585026	-27.0330866314126	39.0566418787435	467.106931997994	0.166968226692209	-0.121986558876258	0.089
1.54596878	-27.1739078974456	39.1940036268257	467.897890025733	0.166863913146419	-0.121711428692317	0.089
1.54634683	-27.315028894764	39.3319265836237	468.6903926077	0.1667603482284	-0.121436467437143	0.089
1.54648423	-27.4564782959761	39.4704443825443	469.484614357536	0.166657508806268	-0.121161636164027	0.089
1.5467175	-27.5982851046336	39.6095906689022	470.280732263018	0.166555371699529	-0.120886890367236	0.089
1.54707587	-27.7404853805699	39.749408345109	471.07896954702	0.166453908900379	-0.120612189700059	0.089
1.5471117	-27.8831147435139	39.8899448011423	471.87955763422	0.166353091568018	-0.120337502546485	0.089
1.54724547	-28.0262062614874	40.0312450955583	472.682712709263	0.166252891668304	-0.120062791894772	0.089
1.54750321	-28.1697903273437	40.1733513940875	473.488635661119	0.166153282515144	-0.119788011431656	0.089
1.54759077	-28.3138858918617	40.3162929600757	474.297461311193	0.166054246915555	-0.119513134216858	0.089
1.54780627	-28.4584979450241	40.4600802530712	475.109238149205	0.165955776034483	-0.119238147237476	0.089
1.54812362	-28.603621934178	40.6047081014029	475.923947985694	0.165857866912736	-0.118963046782041	0.089
1.54817888	-28.7492473545162	40.7501628308062	476.741534932937	0.165760520717028	-0.118687858278444	0.089
1.54829861	-28.8953666415942	40.8964302383384	477.561948546908	0.165663737905689	-0.118412604726398	0.089
1.54865612	-29.0419748368537	41.0434942431739	478.38513568273	0.165567519445833	-0.118137271871165	0.089
1.54878582	-29.1890659647499	41.1913327415609	479.211015115842	0.165471872912451	-0.117861830195397	0.089
1.54902553	-29.3366439353298	41.3399310889432	480.039546065518	0.16537680439407	-0.117586241638246	0.089
1.54945301	-29.4847297359182	41.4892910784831	480.870774103586	0.165282313814637	-0.117310459976044	0.089
1.54949576	-29.6333505215622	41.6394212404189	481.704776402069	0.165188399698443	-0.117034447787096	0.089
1.54960599	-29.7825445010508	41.7903396482123	482.541682378258	0.16509505669639	-0.11675814634081	0.089
1.54980917	-29.9323538026016	41.9420690805027	483.381643603749	0.165002277895743	-0.1164814805491	0.089
1.54989973	-30.0828101183944	42.0946260773394	484.224768917561	0.164910062331331	-0.116204394106988	0.089
1.55012775	-30.2339393906962	42.2480242415713	485.071147557653	0.164818410728154	-0.115926830510577	0.089
1.55041013	-30.385764088575	42.4022765986118	485.920861616043	0.164727322607968	-0.115648736357346	0.089
1.55046763	-30.5383010312122	42.5573935197509	486.773974908528	0.164636798483839	-0.115370082321238	0.089
1.55057903	-30.6915657237736	42.7133862768854	487.630553708614	0.164546837325852	-0.115090847079885	0.089
1.55091213	-30.8455728811036	42.87026775242	488.490669107037	0.164457437004761	-0.114811015107088	0.089
1.55104079	-31.0003298618308	43.0280482797402	489.35436657761	0.164368599828076	-0.114530598108267	0.089
1.55128027	-31.1558417633868	43.1867412920031	490.221700164692	0.16428032857914	-0.114249611341917	0.089
1.55170173	-31.3121168947001	43.3463695640754	491.092774569285	0.164192622880104	-0.113968063658367	0.089
1.55181674	-31.4691607548357	43.5069562142883	491.967678921258	0.164105480023748	-0.113685969117868	0.089
1.55202412	-31.6269784377208	43.6685275316464	492.846499903501	0.164018892416981	-0.113403328062475	0.089
1.5523637	-31.7855769797892	43.8311151170419	493.729336674157	0.163932848939974	-0.113120129758847	0.089
1.55239765	-31.9449614611334	43.9947548621028	494.616292414971	0.163847339276116	-0.112836376071312	0.089
1.55252838	-32.1051409649636	44.1594885106633	495.507497218221	0.163762352120652	-0.1125520679465	0.089
1.552769	-32.266132153831	44.325363781636	496.403118276535	0.1636778732274	-0.112267189716197	0.089
1.55284644	-32.4279641916071	44.492439425248	497.303384609399	0.163593885959733	-0.111981705078405	0.089
1.55305917	-32.5906842820806	44.6607881393102	498.208607363626	0.163510369746447	-0.111695520408	0.089
1.55336168	-32.7543513524226	44.8304876704486	499.119139946373	0.16342730289161	-0.111408503336445	0.089
1.55341766	-32.9190232820403	45.0016126773925	500.035319373858	0.163344668106007	-0.111120499136821	0.089
1.55353339	-33.0847547366629	45.1742327990487	500.957458076214	0.16326245132673	-0.110831343620574	0.089
1.55388799	-33.2515953079151	45.3484108790392	501.885840721795	0.163180639652892	-0.110540897664232	0.089
1.55401984	-33.4195785832734	45.5241956044185	502.820682391938	0.163099224046169	-0.110249125878846	0.089
1.55424625	-33.5887147791806	45.7016169199223	503.762105339581	0.163018198767019	-0.109956151766358	0.089
1.55464704	-33.7589868819627	45.8806828893111	504.710117161718	0.162937562614685	-0.109662218274532	0.089
1.55488693	-33.9303412085809	46.0613727000544	505.664551886361	0.162857324777266	-0.109367608847779	0.089
1.55512681	-34.1027190954204	46.2436546726858	506.625189357607	0.162777500340589	-0.109072545338981	0.089
1.55517987	-34.2760716621506	46.4274927525401	507.591808042801	0.162698106920098	-0.108777148344446	0.089
1.55528071	-34.4503517533758	46.6128445964934	508.564163343207	0.162619166043121	-0.108481498558464	0.089
1.55550573	-34.6255210363215	46.7996696407152	509.542026135072	0.162540699012824	-0.108185635569929	0.089
1.55559489	-34.8015483717798	46.9879269070502	510.525180025768	0.16246272677961	-0.107889566926049	0.089
1.55580192	-34.9783992328453	47.1775680513247	511.5133807795	0.16238527382948	-0.107593298680682	0.089
1.55607423	-35.1560338328459	47.3685390878275	512.506361526807	0.162308364796368	-0.107296848833024	0.089
1.55613328	-35.3344053565832	47.5607771608832	513.503822135506	0.162232021573184	-0.107000249862323	0.089
1.556242	-35.5134744002041	47.7542261357676	514.505499561747	0.162156263746444	-0.106703519003515	0.089
1.55659177	-35.6932077763651	47.9488442704498	515.51118707259	0.162081106364783	-0.106406688525067	0.089
1.55672888	-35.8735763198933	48.1446005339616	516.520722992562	0.162006562068787	-0.106109800571875	0.089
1.55695154	-36.0545549152149	48.3414629769273	517.533948749135	0.161932645898222	-0.105812864841065	0.089
1.55734286	-36.2361213400239	48.5393974506833	518.550704812963	0.161859374412575	-0.105515870778479	0.089
1.55773417	-36.4182542753652	48.7383672594545	519.570827233835	0.161786764355323	-0.105218797939548	0.089
